<svg width="40" height="40" viewBox="0 0 40 40" fill="none" xmlns="http://www.w3.org/2000/svg">
<circle cx="20" cy="20" r="20" fill="#FF5E13"/>
<svg x="8" y="8" width="24" height="24" viewBox="0 0 24 24" fill="none" xmlns="http://www.w3.org/2000/svg">
<path d="M20 21V19C20 17.84 19.579 16.722 18.828 15.971C18.077 15.219 16.96 15 16 15H8C6.94 15 5.822 15.219 5.171 15.971C4.421 16.722 4 17.84 4 19V21" stroke="white" stroke-width="2" stroke-linecap="round" stroke-linejoin="round"/>
<path d="M12 11C14.209 11 16 9.209 16 7C16 4.791 14.209 3 12 3C9.791 3 8 4.791 8 7C8 9.209 9.791 11 12 11Z" stroke="white" stroke-width="2" stroke-linecap="round" stroke-linejoin="round"/>
</svg>
</svg>
